<?xml version="1.0" standalone="no"?>
<!DOCTYPE svg PUBLIC "-//W3C//DTD SVG 20010904//EN"
 "http://www.w3.org/TR/2001/REC-SVG-20010904/DTD/svg10.dtd">
<svg version="1.0" xmlns="http://www.w3.org/2000/svg"
 width="436.000000pt" height="430.000000pt" viewBox="0 0 436.000000 430.000000"
 preserveAspectRatio="xMidYMid meet">

<g transform="translate(0.000000,430.000000) scale(0.100000,-0.100000)"
fill="#000000" stroke="none">
<path d="M0 2150 l0 -2150 2180 0 2180 0 0 2150 0 2150 -2180 0 -2180 0 0
-2150z m1207 1752 c-27 -29 -73 -142 -91 -219 -21 -92 -21 -270 0 -386 119
-681 841 -1448 1600 -1700 196 -65 289 -81 469 -82 178 0 276 19 393 76 l77
37 -66 -63 c-338 -320 -1052 -210 -1679 259 -480 358 -826 852 -927 1319 -13
57 -18 125 -18 227 0 124 4 156 24 220 41 132 96 222 185 301 41 37 63 44 33
11z m2033 -807 c16 -9 32 -25 35 -38 3 -12 4 -281 3 -597 l-3 -575 -500 -3
-500 -2 -85 57 -85 58 525 3 c469 2 526 4 542 19 17 15 18 45 17 488 0 404 -2
475 -15 494 l-15 21 -944 0 -943 0 -15 45 -16 45 985 0 c861 0 989 -2 1014
-15z m-942 -410 c33 -27 61 -57 61 -66 1 -22 -35 -53 -51 -43 -7 4 -10 3 -5
-1 7 -9 -20 -45 -35 -45 -4 0 -8 9 -8 19 0 11 -4 23 -10 26 -5 3 -10 17 -10
31 0 29 -16 64 -30 64 -5 0 -12 -20 -16 -45 -3 -25 -10 -48 -16 -51 -5 -3 -6
-14 -3 -25 4 -13 2 -19 -8 -19 -16 0 -50 34 -41 42 3 3 0 9 -7 14 -8 4 -10 3
-5 -4 4 -7 4 -12 0 -12 -13 0 -44 33 -44 46 0 21 139 136 154 127 7 -5 40 -30
74 -58z m-863 -795 l300 -6 -305 1 -305 0 0 355 -1 355 6 -350 5 -350 300 -5z
m1004 674 c17 -14 28 -31 24 -36 -3 -7 -1 -8 5 -4 15 9 82 -52 76 -68 -8 -22
-132 -116 -152 -116 -10 0 -27 9 -38 21 -18 20 -18 21 13 50 18 16 41 29 53
29 11 0 23 7 27 15 8 22 -4 30 -21 16 -11 -9 -16 -9 -21 0 -4 6 -1 15 6 20 7
4 11 11 7 14 -10 10 -38 -9 -51 -35 -7 -13 -24 -32 -39 -43 l-28 -21 -25 24
c-14 13 -24 30 -23 37 4 16 129 122 145 123 6 0 25 -12 42 -26z m-205 -52 c10
-16 -11 -25 -31 -12 -17 11 -17 11 0 6 9 -3 17 -1 17 4 0 6 -4 10 -8 10 -5 0
-6 15 -3 33 l5 32 6 -31 c4 -17 10 -36 14 -42z m146 -65 c0 -2 -15 -16 -32
-33 l-33 -29 29 33 c28 30 36 37 36 29z m-1150 -216 c0 -157 3 -212 13 -218 6
-4 91 -10 187 -13 l175 -6 -177 -2 c-237 -3 -218 -24 -218 243 0 130 4 205 10
205 6 0 10 -76 10 -209z m1066 142 c66 -58 74 -72 50 -92 -10 -9 -15 -8 -19 4
-4 8 -1 14 5 12 6 -1 12 3 15 10 3 7 -3 10 -16 6 -11 -3 -22 -12 -24 -22 -3
-9 -5 0 -6 20 -1 49 -16 59 -86 59 -34 0 -66 -5 -73 -12 -7 -7 -13 -35 -14
-62 l-1 -51 -7 45 c-4 25 -8 42 -8 38 -1 -5 -1 -10 1 -11 1 -2 -4 -11 -11 -19
-9 -11 -9 -18 -2 -21 6 -3 6 -5 -2 -3 -6 1 -16 10 -22 20 -9 15 -1 27 54 76
36 33 73 59 83 60 10 0 47 -26 83 -57z m-28 -95 l-3 -63 -50 0 -50 0 -3 63 -3
62 56 0 56 0 -3 -62z m-421 -491 c32 -24 87 -64 122 -90 l65 -47 -493 0 c-440
0 -497 2 -528 17 -47 22 -93 86 -93 130 l0 33 435 0 435 0 57 -43z m1637 6
c-18 -79 -74 -128 -157 -138 -29 -4 -173 -5 -322 -3 l-270 4 -85 36 c-155 65
-227 102 -205 106 11 2 24 8 30 13 5 5 226 9 512 9 l503 0 -6 -27z m-1221
-596 c8 -21 -8 -39 -29 -35 -11 2 -20 13 -22 26 -3 18 1 22 21 22 14 0 27 -6
30 -13z m1089 -98 l3 -111 62 56 c57 52 65 56 111 56 l50 0 -61 -59 -60 -58
67 -79 68 -79 -49 -3 c-47 -3 -49 -3 -98 53 l-50 56 -23 -24 c-13 -14 -22 -36
-22 -55 0 -31 -2 -32 -40 -32 l-40 0 0 195 0 195 40 0 39 0 3 -111z m-2238 77
c70 -29 96 -107 60 -177 -21 -42 -68 -59 -164 -59 l-80 0 0 -60 c0 -56 -2 -60
-23 -60 l-22 0 0 185 0 185 98 0 c60 0 110 -5 131 -14z m1334 -43 c3 -30 6
-33 38 -33 31 0 34 -2 34 -30 0 -28 -3 -30 -35 -30 l-36 0 3 -77 3 -78 37 1
c31 1 37 -3 43 -24 8 -32 -7 -42 -67 -42 -34 0 -54 6 -73 23 -23 20 -26 30
-30 107 -4 76 -6 85 -25 88 -15 3 -20 11 -20 33 0 24 4 29 24 29 21 0 24 4 22
28 -5 38 1 44 42 40 34 -3 37 -6 40 -35z m361 -47 c36 -19 59 -54 67 -105 l7
-41 -117 0 c-65 0 -116 -4 -116 -9 0 -19 53 -51 84 -51 17 0 43 6 58 14 24 13
28 12 47 -10 l21 -24 -32 -20 c-41 -25 -135 -27 -184 -4 -47 23 -74 70 -74
132 0 43 5 57 30 85 16 19 44 39 62 45 40 13 108 8 147 -12z m341 8 c34 -14
60 -38 60 -57 0 -3 -14 -10 -30 -17 -26 -11 -33 -10 -49 4 -22 20 -70 21 -98
1 -46 -32 -36 -113 16 -135 31 -12 74 -5 92 16 9 11 15 11 40 -2 35 -18 36
-24 4 -54 -30 -28 -114 -38 -167 -21 -105 35 -133 180 -46 242 56 40 115 48
178 23z m-1850 -14 c0 -24 8 -25 30 -5 10 9 34 19 55 22 32 5 37 4 33 -13 -2
-12 -15 -21 -38 -25 -58 -12 -70 -37 -70 -145 0 -94 0 -94 -25 -94 l-25 0 0
140 c0 133 1 140 20 140 13 0 20 -7 20 -20z m377 3 c97 -46 98 -199 2 -249
-51 -26 -141 -16 -179 21 -125 119 18 304 177 228z m357 -8 l36 -24 0 24 c0
18 5 25 20 25 19 0 20 -7 20 -132 0 -73 -5 -150 -10 -170 -19 -68 -103 -102
-197 -79 -63 16 -90 35 -74 54 10 13 17 12 49 -5 27 -14 51 -18 91 -15 64 5
91 30 91 83 l0 34 -32 -20 c-65 -39 -163 -18 -203 43 -81 125 83 268 209 182z
m226 -115 c0 -133 -1 -140 -20 -140 -19 0 -20 7 -20 140 0 133 1 140 20 140
19 0 20 -7 20 -140z"/>
<path d="M2140 2566 c0 -2 8 -10 18 -17 15 -13 16 -12 3 4 -13 16 -21 21 -21
13z"/>
<path d="M2494 2481 c4 -5 2 -12 -3 -15 -5 -3 -7 -15 -4 -25 4 -17 8 -18 24
-8 25 15 24 29 -2 45 -12 8 -18 9 -15 3z m16 -27 c0 -8 -5 -12 -10 -9 -6 4 -8
11 -5 16 9 14 15 11 15 -7z"/>
<path d="M2447 2422 c7 -4 9 -13 4 -21 -7 -10 -14 -11 -32 -1 -23 11 -23 10
-5 -4 19 -16 19 -16 -5 -18 -13 0 -30 -1 -36 -1 -19 1 -16 -5 8 -18 17 -9 20
-8 14 2 -6 9 -3 11 9 6 22 -9 82 43 64 55 -7 4 -17 8 -23 8 -5 0 -5 -4 2 -8z"/>
<path d="M2250 2259 c0 -6 -7 -9 -15 -5 -9 3 -15 0 -15 -10 0 -11 -4 -12 -19
-5 -14 8 -20 7 -25 -4 -4 -12 4 -15 39 -15 41 0 45 2 45 25 0 14 -2 25 -5 25
-3 0 -5 -5 -5 -11z"/>
<path d="M3080 1780 c0 -6 32 -10 75 -10 43 0 75 4 75 10 0 6 -32 10 -75 10
-43 0 -75 -4 -75 -10z"/>
<path d="M930 1065 l0 -95 65 0 c106 0 155 31 155 97 -1 62 -55 92 -167 93
l-53 0 0 -95z"/>
<path d="M2676 1029 c-44 -35 -34 -44 46 -42 40 0 74 6 76 11 5 15 -47 52 -73
52 -12 0 -34 -9 -49 -21z"/>
<path d="M1583 1062 c-37 -4 -79 -42 -86 -78 -21 -111 111 -178 186 -94 68 76
7 183 -100 172z"/>
<path d="M1913 1059 c-42 -12 -63 -44 -63 -95 0 -67 45 -101 125 -95 36 3 64
23 80 58 40 83 -44 161 -142 132z"/>
</g>
</svg>
